<?xml version="1.0" encoding="UTF-8" standalone="no"?>
<!-- Created with Inkscape (http://www.inkscape.org/) -->

<svg
   xmlns:dc="http://purl.org/dc/elements/1.1/"
   xmlns:cc="http://creativecommons.org/ns#"
   xmlns:rdf="http://www.w3.org/1999/02/22-rdf-syntax-ns#"
   xmlns:svg="http://www.w3.org/2000/svg"
   xmlns="http://www.w3.org/2000/svg"
   xmlns:sodipodi="http://sodipodi.sourceforge.net/DTD/sodipodi-0.dtd"
   xmlns:inkscape="http://www.inkscape.org/namespaces/inkscape"
   width="130"
   height="60"
   viewBox="0 0 34.395832 15.875"
   version="1.1"
   id="svg8"
   inkscape:version="0.92.3 (2405546, 2018-03-11)"
   sodipodi:docname="coop.svg">
  <defs
     id="defs2" />
  <sodipodi:namedview
     id="base"
     pagecolor="#ffffff"
     bordercolor="#666666"
     borderopacity="1.0"
     inkscape:pageopacity="0.0"
     inkscape:pageshadow="2"
     inkscape:zoom="0.99"
     inkscape:cx="-37.142857"
     inkscape:cy="75.151515"
     inkscape:document-units="mm"
     inkscape:current-layer="layer1"
     showgrid="false"
     inkscape:window-width="1920"
     inkscape:window-height="1029"
     inkscape:window-x="0"
     inkscape:window-y="25"
     inkscape:window-maximized="1"
     inkscape:snap-global="false"
     units="px" />
  <metadata
     id="metadata5">
    <rdf:RDF>
      <cc:Work
         rdf:about="">
        <dc:format>image/svg+xml</dc:format>
        <dc:type
           rdf:resource="http://purl.org/dc/dcmitype/StillImage" />
        <dc:title></dc:title>
      </cc:Work>
    </rdf:RDF>
  </metadata>
  <g
     inkscape:label="Capa 1"
     inkscape:groupmode="layer"
     id="layer1"
     transform="translate(0,-281.125)">
    <g
       transform="matrix(0.24836242,0,0,-0.24836242,1.7649243,295.66892)"
       inkscape:label="ink_ext_XXXXXX"
       id="g845"
       style="fill:#ffffff">
      <g
         transform="scale(0.1)"
         id="g847"
         style="fill:#ffffff">
        <path
           inkscape:connector-curvature="0"
           id="path849"
           style="fill:#ffffff;fill-opacity:1;fill-rule:nonzero;stroke:none"
           d="m 521.023,457.492 c 46.321,-10.801 82.629,-46.015 94.77,-91.836 4.285,-16.23 20.965,-25.879 37.117,-21.601 16.211,4.297 25.879,20.918 21.582,37.129 -3.847,14.492 -9.324,28.3 -16.25,41.152 31.301,32.051 76.934,45.547 120.789,35.332 68.852,-16.074 111.836,-85.098 95.824,-153.828 -16.078,-68.82 -85.167,-111.77 -153.886,-95.832 -49.848,11.64 -87.934,51.601 -97.004,101.828 -2.981,16.504 -18.82,27.5 -35.266,24.473 -16.519,-2.989 -27.476,-18.789 -24.488,-35.293 3.602,-19.875 10.269,-38.625 19.488,-55.793 -31.011,-31.817 -76.765,-45.586 -120.816,-35.371 -68.813,16.054 -111.738,85.101 -95.754,153.937 13.809,59.082 66.633,99.082 124.824,99.082 9.578,0 19.356,-1.094 29.07,-3.379 z M 621.047,194.805 c 23.699,-22.129 53.164,-38.242 86.148,-45.918 101.391,-23.555 203.11,39.746 226.782,141.152 23.621,101.34 -39.68,203.078 -141.118,226.75 -61.929,14.473 -126.148,-3.144 -171.929,-46.016 -23.723,22.129 -53.188,38.165 -86.094,45.86 C 433.445,540.285 331.68,477.023 307.996,375.559 284.414,274.121 347.695,172.363 449.094,148.73 c 14.234,-3.3 28.601,-4.921 42.84,-4.921 47.785,0 94.05,18.183 129.113,50.996 z M 1000.33,30.3516 V 155.02 c 16.69,-6.524 34.63,-10.997 53.61,-10.997 104.12,0 188.84,84.727 188.84,188.879 0,104.141 -84.72,188.828 -188.84,188.828 -41.92,0 -81.635,-13.437 -114.799,-38.847 -13.313,-10.195 -15.828,-29.258 -5.633,-42.559 10.191,-13.301 29.246,-15.84 42.566,-5.625 22.461,17.207 49.406,26.309 77.866,26.309 70.65,0 128.13,-57.461 128.13,-128.106 0,-70.675 -57.48,-128.156 -128.13,-128.156 -17.74,0 -36.02,7.734 -53.61,17.383 v 10.898 c 0,16.758 -13.592,30.371 -30.357,30.371 -16.782,0 -30.356,-13.613 -30.356,-30.371 V 30.3516 C 939.617,13.5938 953.191,0 969.973,0 c 16.765,0 30.357,13.5938 30.357,30.3516 z M 188.848,144.023 C 84.6992,144.023 0,228.73 0,332.863 c 0,0.02 0,0.02 0,0.039 0,104.141 84.6992,188.828 188.848,188.828 h 0.144 0.102 0.054 c 41.821,-0.058 81.387,-13.476 114.497,-38.847 13.308,-10.195 15.835,-29.258 5.64,-42.559 C 299.07,427.023 280,424.523 266.711,434.68 c -3.789,2.91 -7.719,5.586 -11.738,8.027 -0.278,0.137 -0.532,0.293 -0.785,0.449 -19.649,11.66 -42.149,17.813 -65.157,17.852 h -0.039 -0.078 -0.059 c -70.664,0 -128.1402,-57.461 -128.1519,-128.125 0.0117,-70.656 57.4879,-128.137 128.1449,-128.137 0.007,0.02 0.058,0.02 0.105,0 0.012,0.02 0.039,0.02 0.078,0 v 0 c 23.008,0.039 45.508,6.231 65.157,17.871 0.253,0.156 0.507,0.293 0.785,0.449 4.019,2.422 7.949,5.118 11.738,8.008 13.289,10.196 32.359,7.676 42.574,-5.625 10.195,-13.32 7.668,-32.383 -5.64,-42.578 -33.11,-25.351 -72.676,-38.789 -114.497,-38.848 -0.015,0.02 -0.054,0.02 -0.093,0 h -0.063 -0.144" />
      </g>
    </g>
  </g>
</svg>
