<?xml version="1.0" encoding="UTF-8" standalone="no"?>
<!-- Created with Inkscape (http://www.inkscape.org/) -->

<svg
   xmlns:dc="http://purl.org/dc/elements/1.1/"
   xmlns:cc="http://creativecommons.org/ns#"
   xmlns:rdf="http://www.w3.org/1999/02/22-rdf-syntax-ns#"
   xmlns:svg="http://www.w3.org/2000/svg"
   xmlns="http://www.w3.org/2000/svg"
   xmlns:sodipodi="http://sodipodi.sourceforge.net/DTD/sodipodi-0.dtd"
   xmlns:inkscape="http://www.inkscape.org/namespaces/inkscape"
   width="130mm"
   height="60mm"
   viewBox="0 0 130 60"
   version="1.1"
   id="svg8"
   inkscape:version="0.92.3 (2405546, 2018-03-11)"
   sodipodi:docname="gaa.svg">
  <defs
     id="defs2" />
  <sodipodi:namedview
     id="base"
     pagecolor="#ffffff"
     bordercolor="#666666"
     borderopacity="1.0"
     inkscape:pageopacity="0.0"
     inkscape:pageshadow="2"
     inkscape:zoom="0.35"
     inkscape:cx="-155.71429"
     inkscape:cy="560"
     inkscape:document-units="mm"
     inkscape:current-layer="layer1"
     showgrid="false"
     inkscape:window-width="1920"
     inkscape:window-height="1029"
     inkscape:window-x="0"
     inkscape:window-y="25"
     inkscape:window-maximized="1"
     inkscape:snap-global="false" />
  <metadata
     id="metadata5">
    <rdf:RDF>
      <cc:Work
         rdf:about="">
        <dc:format>image/svg+xml</dc:format>
        <dc:type
           rdf:resource="http://purl.org/dc/dcmitype/StillImage" />
        <dc:title></dc:title>
      </cc:Work>
    </rdf:RDF>
  </metadata>
  <g
     inkscape:label="Capa 1"
     inkscape:groupmode="layer"
     id="layer1"
     transform="translate(0,-237)">
    <path
       style="fill:#ffffff;stroke-width:0.0503236"
       d="m 20.821249,278.53181 c -4.240663,-0.52746 -7.857403,-2.26442 -10.772013,-5.17334 -3.0898398,-3.0838 -4.9045998,-6.92983 -5.4383098,-11.5254 -0.11318,-0.9745 -0.11347,-3.06182 -5.7e-4,-4.09155 0.39948,-3.64379 1.68702,-6.8121 3.91002,-9.62163 0.56734,-0.71702 2.1565198,-2.29133 2.8651998,-2.83837 3.46247,-2.67276 7.42463,-4.01218 11.901529,-4.02335 1.282283,-0.003 1.922823,0.0482 3.088744,0.24767 4.872502,0.83376 8.964079,3.72509 11.220027,7.9287 0.142951,0.26636 0.259911,0.49501 0.259911,0.50809 0,0.0131 -0.367992,0.0395 -0.817759,0.0587 -1.277716,0.0545 -2.920801,0.23558 -3.658472,0.40312 l -0.27652,0.0628 -0.168296,-0.28044 c -0.461308,-0.7687 -1.223624,-1.56922 -2.076966,-2.18108 -0.637027,-0.45676 -1.91543,-1.0871 -2.779314,-1.3704 -0.788844,-0.25869 -1.909526,-0.49707 -2.738615,-0.58254 -0.761817,-0.0785 -2.46156,-0.0352 -3.084374,0.0787 -1.575202,0.28797 -3.070175,0.96971 -4.252345,1.93913 -0.47935,0.39309 -1.34707,1.29736 -1.7057,1.77755 -1.34921,1.80651 -2.24099,4.1352 -2.5565,6.67576 -0.10015,0.80639 -0.0838,3.26344 0.0278,4.17636 0.63241,5.17322 2.68558,9.08003 5.903725,11.23372 2.378802,1.59197 5.626102,2.09811 8.747634,1.36346 2.773495,-0.65275 5.313706,-2.29082 7.203994,-4.64555 0.414434,-0.51626 1.678121,-2.31343 1.678121,-2.38657 0,-0.0921 -0.890694,-1.16092 -1.388704,-1.66638 -1.227953,-1.24632 -2.441444,-2.12624 -3.954631,-2.86757 -1.538198,-0.75357 -2.962995,-1.13655 -4.685168,-1.25933 l -0.492182,-0.0351 -0.377845,-0.47842 c -0.207815,-0.26313 -0.371309,-0.48461 -0.36332,-0.49219 0.008,-0.008 0.27735,-0.0725 0.598578,-0.14436 4.247464,-0.94974 8.838314,-1.08986 11.745229,-0.35846 1.051464,0.26455 1.950799,0.6333 2.775247,1.13792 0.322212,0.19721 0.337313,0.20125 0.420925,0.11258 0.0477,-0.0506 1.803637,-2.53771 3.902088,-5.52693 2.09845,-2.98922 3.878437,-5.52232 3.955528,-5.62911 0.164745,-0.22821 0.194012,-0.14447 -0.396,-1.13299 -0.788848,-1.32165 -1.451901,-2.19614 -2.242573,-2.95769 -0.604377,-0.58212 -1.207588,-1.00138 -1.846241,-1.2832 -0.420251,-0.18545 -1.305917,-0.44563 -1.516964,-0.44563 -0.09347,0 -0.885497,-0.93741 -0.834831,-0.98808 0.01379,-0.0138 0.290789,-0.0684 0.615546,-0.1214 1.800657,-0.29373 4.614351,-0.46619 5.874035,-0.36003 2.302012,0.194 4.416121,1.06928 6.409277,2.65356 0.676198,0.53748 1.957035,1.83033 2.541226,2.56506 0.718702,0.9039 0.943034,1.23612 4.649035,6.88481 1.882103,2.8687 3.433327,5.21536 3.447166,5.2148 0.02372,-9.7e-4 6.989933,-9.88718 7.141306,-10.1347 0.06537,-0.10689 0.05216,-0.14839 -0.171009,-0.53714 -1.834265,-3.19521 -3.464533,-4.69266 -5.572398,-5.11842 l -0.438907,-0.0887 -0.374569,-0.47555 c -0.305202,-0.38749 -0.359048,-0.48138 -0.290779,-0.50699 0.104663,-0.0393 1.823385,-0.27584 2.499316,-0.34401 0.741906,-0.0748 2.273993,-0.15289 3.001501,-0.15292 2.673194,-1.3e-4 5.113194,0.90395 7.440646,2.75693 0.616977,0.4912 1.824778,1.7011 2.371922,2.37604 0.687787,0.84845 1.057409,1.402 2.536963,3.79943 0.768658,1.24551 2.613078,4.23474 4.098721,6.64272 1.485644,2.40798 4.94985,8.02189 7.698238,12.47535 2.748383,4.45347 5.008008,8.13904 5.021378,8.19017 0.0233,0.0892 -0.0538,0.093 -1.913685,0.093 -1.065899,0 -2.172515,-0.0239 -2.459143,-0.0532 -2.86142,-0.29196 -5.103915,-1.81745 -7.499137,-5.1014 -0.26743,-0.36666 -0.853498,-1.21948 -1.302365,-1.89516 -0.448871,-0.67567 -0.832709,-1.24689 -0.852974,-1.26936 -0.02026,-0.0225 -0.28926,0.32206 -0.597769,0.76564 -1.627788,2.34043 -2.657554,3.62236 -3.785794,4.7128 -2.046631,1.97807 -4.307846,2.98919 -7.01514,3.13687 -1.780031,0.0971 -3.274415,-0.16389 -4.805903,-0.8393 -1.466269,-0.64665 -2.595153,-1.43826 -3.849756,-2.69958 -0.918174,-0.92309 -1.416382,-1.57564 -2.68117,-3.51179 -0.573528,-0.87796 -1.057682,-1.59696 -1.075899,-1.59777 -0.01822,-8.3e-4 -0.322121,0.41179 -0.675337,0.91691 -0.893617,1.27794 -1.671705,2.31825 -2.286554,3.05716 -2.562653,3.07972 -5.08141,4.48247 -8.392877,4.6742 -4.078879,0.23616 -7.36201,-1.59621 -10.538942,-5.88196 -0.420389,-0.56712 -1.161656,-1.67901 -1.601986,-2.40296 -0.122052,-0.20066 -0.233686,-0.36429 -0.248077,-0.36361 -0.01439,6.8e-4 -0.203402,0.25067 -0.420025,0.55553 -1.237444,1.74149 -2.911938,3.48468 -4.523412,4.70898 -2.549001,1.93658 -5.56174,3.12602 -8.896556,3.51238 -0.520629,0.0603 -1.149708,0.077 -2.692312,0.0712 -1.107119,-0.004 -2.080881,-0.0159 -2.163915,-0.0263 z m 38.108898,-9.15748 2.127531,-3.04848 -0.346272,-0.53539 c -0.19045,-0.29446 -1.601991,-2.44894 -3.136756,-4.78773 -1.534769,-2.33878 -3.454852,-5.26573 -4.266854,-6.50432 -0.812001,-1.23859 -1.490129,-2.251 -1.50695,-2.24979 -0.01682,0.001 -1.677548,2.34604 -3.690503,5.21076 l -3.659918,5.20857 0.357028,0.4129 c 0.389933,0.45096 0.858167,1.08732 2.066987,2.8092 1.738102,2.4758 3.069712,3.89843 4.613862,4.92924 1.462449,0.97627 3.32346,1.56677 5.037539,1.59841 l 0.27678,0.005 z m 22.311646,2.13251 c 0.377538,-0.5046 0.896777,-1.21185 1.15387,-1.57167 1.100959,-1.54085 2.396138,-3.58844 2.347656,-3.71147 -0.01361,-0.0345 -1.834562,-2.82701 -4.046561,-6.20548 -2.211994,-3.37848 -4.258352,-6.50791 -4.547461,-6.95428 -0.289109,-0.44637 -0.539087,-0.81292 -0.555502,-0.81455 -0.01642,-0.002 -0.153638,0.17254 -0.304926,0.38705 -0.151288,0.2145 -1.775412,2.51441 -3.609158,5.11091 l -3.334095,4.72091 0.449068,0.68888 c 2.273057,3.48693 4.500938,6.84147 4.733312,7.12698 1.135934,1.39569 3.262685,2.0859 6.574451,2.13366 l 0.452912,0.007 z"
       id="path886"
       inkscape:connector-curvature="0" />
  </g>
</svg>
