<?xml version="1.0" encoding="UTF-8" standalone="no"?>
<!-- Created with Inkscape (http://www.inkscape.org/) -->

<svg
   xmlns:dc="http://purl.org/dc/elements/1.1/"
   xmlns:cc="http://creativecommons.org/ns#"
   xmlns:rdf="http://www.w3.org/1999/02/22-rdf-syntax-ns#"
   xmlns:svg="http://www.w3.org/2000/svg"
   xmlns="http://www.w3.org/2000/svg"
   xmlns:sodipodi="http://sodipodi.sourceforge.net/DTD/sodipodi-0.dtd"
   xmlns:inkscape="http://www.inkscape.org/namespaces/inkscape"
   width="130"
   height="60"
   viewBox="0 0 34.395832 15.875"
   version="1.1"
   id="svg8"
   inkscape:version="0.92.3 (2405546, 2018-03-11)"
   sodipodi:docname="gaa.svg">
  <defs
     id="defs2" />
  <sodipodi:namedview
     id="base"
     pagecolor="#ffffff"
     bordercolor="#666666"
     borderopacity="1.0"
     inkscape:pageopacity="0.0"
     inkscape:pageshadow="2"
     inkscape:zoom="0.99"
     inkscape:cx="-37.142857"
     inkscape:cy="75.151515"
     inkscape:document-units="mm"
     inkscape:current-layer="layer1"
     showgrid="false"
     inkscape:window-width="1920"
     inkscape:window-height="1029"
     inkscape:window-x="0"
     inkscape:window-y="25"
     inkscape:window-maximized="1"
     inkscape:snap-global="false"
     units="px" />
  <metadata
     id="metadata5">
    <rdf:RDF>
      <cc:Work
         rdf:about="">
        <dc:format>image/svg+xml</dc:format>
        <dc:type
           rdf:resource="http://purl.org/dc/dcmitype/StillImage" />
        <dc:title></dc:title>
      </cc:Work>
    </rdf:RDF>
  </metadata>
  <g
     inkscape:label="Capa 1"
     inkscape:groupmode="layer"
     id="layer1"
     transform="translate(0,-281.125)">
    <path
       style="fill:#ffffff;stroke-width:0.01316345"
       d="m 8.8292888,292.20601 c -1.1092564,-0.13797 -2.0553092,-0.59232 -2.8177017,-1.35322 -0.8082284,-0.80665 -1.2829263,-1.81268 -1.4225322,-3.01477 -0.029606,-0.25491 -0.029681,-0.8009 -1.49e-4,-1.07025 0.1044944,-0.95313 0.4412841,-1.78188 1.0227679,-2.51679 0.1484026,-0.18755 0.5640943,-0.59935 0.749468,-0.74245 0.9056995,-0.69913 1.942106,-1.04949 3.1131561,-1.05241 0.3354145,-7.9e-4 0.5029645,0.0126 0.8079421,0.0648 1.27453,0.21809 2.344789,0.97439 2.934891,2.07396 0.03739,0.0697 0.06799,0.12948 0.06799,0.1329 0,0.004 -0.09626,0.0103 -0.213907,0.0154 -0.334219,0.0143 -0.764011,0.0617 -0.956969,0.10545 l -0.07233,0.0165 -0.04402,-0.0733 c -0.120667,-0.20107 -0.320071,-0.41047 -0.543284,-0.57051 -0.166631,-0.11948 -0.501031,-0.28437 -0.727003,-0.35847 -0.206342,-0.0677 -0.499486,-0.13003 -0.716356,-0.15238 -0.1992735,-0.0205 -0.6438858,-0.009 -0.806799,0.0206 -0.4120353,0.0753 -0.8030846,0.25366 -1.112312,0.50724 -0.1253866,0.10282 -0.3523614,0.33936 -0.4461705,0.46496 -0.352921,0.47254 -0.5861895,1.08167 -0.6687194,1.74622 -0.026197,0.21093 -0.02192,0.85363 0.00727,1.09244 0.1654233,1.35319 0.7024835,2.37512 1.5442735,2.93847 0.6222378,0.41642 1.4716544,0.54881 2.2881724,0.35665 0.725481,-0.17075 1.389938,-0.59923 1.884393,-1.21517 0.108405,-0.13504 0.438956,-0.60513 0.438956,-0.62427 0,-0.0241 -0.232985,-0.30367 -0.363252,-0.43589 -0.321203,-0.326 -0.638623,-0.55616 -1.034437,-0.75008 -0.402355,-0.19712 -0.775048,-0.29729 -1.225527,-0.32941 l -0.128744,-0.009 -0.09883,-0.12515 c -0.05436,-0.0688 -0.09713,-0.12676 -0.09504,-0.12874 0.0021,-0.002 0.07255,-0.019 0.156573,-0.0378 1.111036,-0.24842 2.311891,-0.28508 3.072272,-0.0938 0.275037,0.0692 0.510281,0.16566 0.725938,0.29765 0.08428,0.0516 0.08824,0.0527 0.110103,0.0295 0.01248,-0.0132 0.471789,-0.66381 1.020693,-1.44571 0.548905,-0.78191 1.014507,-1.44452 1.034672,-1.47244 0.04309,-0.0597 0.05075,-0.0377 -0.103583,-0.29637 -0.206345,-0.34571 -0.379783,-0.57446 -0.586604,-0.77366 -0.158091,-0.15227 -0.315877,-0.26193 -0.482933,-0.33566 -0.109928,-0.0485 -0.341597,-0.11657 -0.396802,-0.11657 -0.02445,0 -0.231625,-0.24519 -0.218372,-0.25845 0.0036,-0.004 0.07606,-0.0179 0.161013,-0.0317 0.471009,-0.0768 1.207004,-0.12194 1.536507,-0.0942 0.602152,0.0508 1.155152,0.2797 1.676515,0.69411 0.176877,0.14058 0.511913,0.47877 0.664723,0.67095 0.187996,0.23644 0.246676,0.32334 1.216077,1.8009 0.492313,0.75039 0.898076,1.36422 0.901696,1.36407 0.0062,-2.5e-4 1.8284,-2.58625 1.867996,-2.65099 0.0171,-0.028 0.01364,-0.0388 -0.04473,-0.1405 -0.4798,-0.8358 -0.90624,-1.2275 -1.457608,-1.33886 l -0.114807,-0.0232 -0.09798,-0.12439 c -0.07983,-0.10136 -0.09392,-0.12591 -0.07606,-0.13261 0.02738,-0.0103 0.476954,-0.0722 0.653762,-0.09 0.194064,-0.0196 0.594822,-0.04 0.78512,-0.04 0.699244,-4e-5 1.33749,0.23645 1.946296,0.72115 0.161386,0.12848 0.477318,0.44496 0.620438,0.62151 0.179909,0.22194 0.276594,0.36673 0.663609,0.99384 0.201063,0.3258 0.683519,1.10771 1.072129,1.73758 0.388608,0.62987 1.294762,2.09833 2.013673,3.26326 0.718913,1.16491 1.309976,2.12898 1.313474,2.14235 0.0061,0.0234 -0.01408,0.0244 -0.500574,0.0244 -0.278814,0 -0.568279,-0.006 -0.643255,-0.0139 -0.748479,-0.0764 -1.335061,-0.4754 -1.961593,-1.33441 -0.06996,-0.0959 -0.223256,-0.31898 -0.34067,-0.49573 -0.117412,-0.17674 -0.217815,-0.32616 -0.223116,-0.33204 -0.0053,-0.006 -0.07566,0.0842 -0.156362,0.20028 -0.425791,0.6122 -0.695153,0.94753 -0.990274,1.23276 -0.535349,0.51741 -1.126829,0.7819 -1.834993,0.82053 -0.465614,0.0254 -0.856509,-0.0429 -1.25711,-0.21954 -0.383541,-0.16915 -0.678829,-0.37622 -1.007004,-0.70615 -0.240172,-0.24145 -0.370491,-0.41215 -0.70133,-0.9186 -0.150021,-0.22965 -0.276664,-0.41772 -0.28143,-0.41794 -0.0048,-2.2e-4 -0.08426,0.10772 -0.176651,0.23984 -0.233749,0.33429 -0.437279,0.60641 -0.598108,0.79968 -0.670329,0.80558 -1.329176,1.17251 -2.195377,1.22266 -1.066937,0.0618 -1.925726,-0.41753 -2.756735,-1.53858 -0.109965,-0.14834 -0.303862,-0.43918 -0.419042,-0.62856 -0.03193,-0.0525 -0.06113,-0.0953 -0.0649,-0.0951 -0.0038,1.7e-4 -0.0532,0.0655 -0.109868,0.14531 -0.323686,0.45553 -0.761693,0.91151 -1.183217,1.23175 -0.666757,0.50657 -1.454817,0.8177 -2.327125,0.91876 -0.1361845,0.0158 -0.3007366,0.0201 -0.704245,0.0186 -0.289596,-9e-4 -0.5443089,-0.004 -0.5660286,-0.007 z m 9.9683792,-2.39537 0.556511,-0.79741 -0.09058,-0.14005 c -0.04981,-0.077 -0.419042,-0.64058 -0.820501,-1.25235 -0.401459,-0.61177 -0.903706,-1.37739 -1.116107,-1.70138 -0.2124,-0.32398 -0.389782,-0.58881 -0.394182,-0.58849 -0.0044,2.6e-4 -0.438806,0.61366 -0.965347,1.36301 l -0.957347,1.36244 0.09339,0.108 c 0.101997,0.11796 0.224475,0.28442 0.540674,0.73482 0.454646,0.64761 0.802964,1.01974 1.206876,1.28937 0.382542,0.25537 0.869338,0.40983 1.3177,0.41811 l 0.0724,9e-4 z m 5.836194,0.55781 c 0.09876,-0.13199 0.234575,-0.31699 0.301824,-0.41111 0.287985,-0.40306 0.626773,-0.93865 0.614091,-0.97083 -0.0036,-0.009 -0.479877,-0.73948 -1.058483,-1.6232 -0.578605,-0.88374 -1.113884,-1.70232 -1.189508,-1.81909 -0.07563,-0.11675 -0.141012,-0.21263 -0.145305,-0.21306 -0.0043,-5.2e-4 -0.04019,0.0451 -0.07976,0.10124 -0.03958,0.0561 -0.464406,0.65772 -0.94407,1.3369 l -0.87212,1.23487 0.117466,0.1802 c 0.594577,0.9121 1.177338,1.78956 1.238122,1.86424 0.297133,0.36509 0.85344,0.54563 1.719719,0.55812 l 0.118471,0.002 z"
       id="path886"
       inkscape:connector-curvature="0" />
  </g>
</svg>
